{"accessors" : [{"bufferView" : 0, "byteOffset" : 0, "componentType" : 5126, "count" : 105331, "type" : "VEC3", "max" : [1.5257999897003174, 1.7081999778747559, 0.8116999864578247], "min" : [-1.9815000295639038, -0.00039999998989515007, -1.3447999954223633], "name" : "POSITION"}], "asset" : {"generator" : "Aspose.3D 22.1", "version" : "2.0"}, "buffers" : [{"uri" : "data:application/octet-stream;base64,", "byteLength" : 1263976}], "bufferViews" : [{"buffer" : 0, "byteOffset" : 0, "byteLength" : 1263972, "byteStride" : 12, "target" : 34962}], "meshes" : [{"primitives" : [{"attributes" : {"POSITION" : 0}, "mode" : 0}], "name" : ""}], "nodes" : [{"mesh" : 0, "name" : ""}], "scene" : 0, "scenes" : [{"nodes" : [0]}]}